<?xml version="1.0" encoding="utf-8"?>
<!-- Generator: Adobe Illustrator 25.0.1, SVG Export Plug-In . SVG Version: 6.00 Build 0)  -->
<svg version="1.1" id="Capa_1" xmlns="http://www.w3.org/2000/svg" xmlns:xlink="http://www.w3.org/1999/xlink" x="0px" y="0px"
	 viewBox="0 0 232 153.8" style="enable-background:new 0 0 232 153.8;" xml:space="preserve">
<style type="text/css">
	.st0{fill-rule:evenodd;clip-rule:evenodd;fill:#FFF;}
</style>
<g id="TEMP_Logo">
	<g id="Group-25">
		<path id="Fill-1" class="st0" d="M188.9,64.5c1.7,6.3,4.6,12.1,8.7,17.1c0,0-7.6-0.2-10.2-5.3C185.4,72.5,186,67.8,188.9,64.5"/>
		<path id="Fill-3" class="st0" d="M200.1,84.2c2.6,2.4,5.6,4.3,8.9,5.4c0,0-4.7,0.4-7.5-1c-2.8-1.4-5.8-3.6-7.6-3.8
			c-1.8-0.2-2.9-0.2-3.4-0.7L200.1,84.2"/>
		<path id="Fill-5" class="st0" d="M204.3,84.4c-1.1-2.7-6.7-2.8-6.7-2.8s1.5,1.6,2.5,2.6C201.5,84.1,202.9,84.2,204.3,84.4"/>
		<path id="Fill-7" class="st0" d="M36.7,72.4h3.4l3.1,7.9l3-7.9h3.5l-5.3,12.3h-1.1c-0.5,0-1.3-0.1-2.1-2.1
			C40.3,80.6,36.7,72.4,36.7,72.4"/>
		<g>
			<polygon id="Fill-9" class="st0" points="50.6,84.8 53.9,84.8 53.9,72.4 50.6,72.4 			"/>
		</g>
		<g>
			<path id="Fill-11" class="st0" d="M54.2,69c0,1.1-0.8,1.9-1.9,1.9s-1.9-0.8-1.9-1.9c0-1.1,0.8-1.9,1.9-1.9c0,0,0,0,0,0
				C53.3,67.1,54.2,67.9,54.2,69C54.2,69,54.2,69,54.2,69"/>
		</g>
		<g>
			<path id="Fill-12" class="st0" d="M80.2,84.8h-3.4v-8.4c0-0.8-0.6-1.4-1.4-1.5c-0.2,0-0.4,0-0.6,0.1c-1,0.2-1.9,0.7-2.7,1.3v8.5
				h-3.4V72.4c0,0,3-0.9,3.3,1.2c1.2-1,2.7-1.5,4.3-1.6c2-0.1,3.7,1.4,3.9,3.4c0,0,0,0,0,0.1V84.8"/>
		</g>
		<g>
			<path id="Fill-13" class="st0" d="M66.5,82.6v-6.4c0-1.4-0.6-4.3-4.7-4.3c-3.9,0-5.3,1.6-5.3,1.6l1.3,2c0,0,0.6-1,3.1-1
				s2.2,2.1,2.2,2.1c-6.8-0.1-7.2,2.7-7.2,4.4c0,2.1,1.6,3.7,3.7,3.8c0,0,0.1,0,0.1,0c1.4,0.1,2.7-0.4,3.8-1.2
				c0.1,1.1,1.3,1.1,1.3,1.1h2C66.6,84.8,66.5,82.6,66.5,82.6z M63.2,81.6c-0.7,0.4-1.5,0.6-2.3,0.6c-1.4,0-1.8-0.9-1.8-1.6
				s0.5-1.7,4.1-1.5V81.6z"/>
		</g>
		<g>
			<path id="Fill-14" class="st0" d="M104,82.6v-6.4c0-1.4-0.6-4.3-4.7-4.3c-3.9,0-5.3,1.6-5.3,1.6l1.3,2c0,0,0.6-1,3.1-1
				s2.2,2.1,2.2,2.1c-6.8-0.1-7.2,2.7-7.2,4.4c0,2.1,1.6,3.7,3.7,3.8c0.1,0,0.1,0,0.2,0c1.4,0.1,2.7-0.4,3.8-1.2
				c0.1,1.1,1.3,1.1,1.3,1.1h2C104.1,84.8,104,82.6,104,82.6z M100.7,81.6c-0.7,0.4-1.5,0.6-2.3,0.6c-1.4,0-1.8-0.9-1.8-1.6
				s0.5-1.7,4.1-1.5L100.7,81.6z"/>
		</g>
		<g>
			<path id="Fill-15" class="st0" d="M91.9,75.8c-0.9-0.8-2.1-1.2-3.3-1.1c-2.4,0-3.4,2.3-3.4,4.3c0,1.9,1.5,3.4,3.4,3.4
				c0.1,0,0.2,0,0.3,0c1,0,2.1-0.4,2.9-1l0.9,2.4c-1.4,0.9-3.1,1.3-4.8,1.3c-3.2,0.1-5.9-2.5-6-5.7c0-0.1,0-0.3,0-0.4
				c0-4.8,3.2-6.9,6.3-6.8c2.8,0,3.9,1,3.9,1L91.9,75.8"/>
		</g>
		<g>
			<path id="Fill-16" class="st0" d="M32.2,67.7h-2.5L23,84.8h3.5l1.4-4.3h6l1.8,4.3h3.5L32.2,67.7z M29,77.7l1.9-5.1l1.9,5.1H29z"
				/>
		</g>
		<g>
			<path id="Fill-17" class="st0" d="M112.7,78.9h6.6l-3.2-8.1L112.7,78.9z M115,68.5h1.9l6.8,16.4h-2.1l-1.8-4.5h-7.7l-1.8,4.5
				h-2.1L115,68.5z"/>
		</g>
		<g>
			<path id="Fill-18" class="st0" d="M125,84.9h1.9V73H125V84.9z M126,68.1c0.7,0,1.3,0.6,1.3,1.3s-0.6,1.3-1.3,1.3
				c-0.7,0-1.3-0.6-1.3-1.3c0-0.7,0.5-1.3,1.2-1.3C125.9,68.1,125.9,68.1,126,68.1L126,68.1z"/>
		</g>
		<g>
			<path id="Fill-19" class="st0" d="M130.1,73h1.6l0.2,2.2c0.6-1.5,2.1-2.5,3.7-2.4c0.5,0,1,0.1,1.5,0.2l-0.2,1.6
				c-0.5-0.1-0.9-0.2-1.4-0.2c-2,0-3.4,1.6-3.4,4v6.5h-1.9V73z"/>
		</g>
		<g>
			<path id="Fill-20" class="st0" d="M140.8,82.2c-0.1,0.7,0.5,1.4,1.2,1.4c0.1,0,0.1,0,0.2,0c0.4,0,0.8-0.1,1.2-0.2l0.2,1.5
				c-0.6,0.1-1.2,0.2-1.8,0.2c-1.5,0.2-2.8-0.9-3-2.4c0-0.2,0-0.3,0-0.5V67.7h1.9L140.8,82.2z"/>
		</g>
		<g>
			<path id="Fill-21" class="st0" d="M144.3,84.9h1.9V73h-1.9V84.9z M145.3,68.1c0.7,0,1.3,0.6,1.3,1.3s-0.6,1.3-1.3,1.3
				c-0.7,0-1.3-0.6-1.3-1.3c0-0.7,0.5-1.3,1.2-1.3C145.3,68.1,145.3,68.1,145.3,68.1L145.3,68.1z"/>
		</g>
		<g>
			<path id="Fill-22" class="st0" d="M149.8,73h1.6l0.2,2.2c0.8-1.6,2.5-2.5,4.3-2.5c2.4-0.1,4.4,1.7,4.5,4.1c0,0.1,0,0.3,0,0.4v7.7
				h-2v-7.4c0-1.7-1.3-3-2.9-3.1c-0.1,0-0.1,0-0.2,0c-2,0-3.6,1.6-3.6,3.6c0,0.1,0,0.2,0,0.3v6.7h-1.9V73z"/>
		</g>
		<g>
			<path id="Fill-23" class="st0" d="M164,78.2h7.3c-0.1-2.3-1.5-4-3.5-4S164.2,75.8,164,78.2 M167.8,72.7c3.2,0,5.4,2.5,5.4,6
				c0,0.2,0,0.5,0,0.7H164c0,2.4,2,4.3,4.4,4.3c0,0,0,0,0.1,0c1.3,0,2.5-0.4,3.6-1l0.6,1.3c-1.4,0.7-2.9,1.1-4.4,1.2
				c-3.3,0.1-6.1-2.5-6.2-5.8c0-0.1,0-0.3,0-0.4C162.1,75.3,164.4,72.7,167.8,72.7"/>
		</g>
		<g>
			<path id="Fill-24" class="st0" d="M178.4,72.7c1.4,0,2.7,0.3,4,0.8L182,75c-1.1-0.5-2.2-0.8-3.4-0.8c-1.5,0-2.5,0.7-2.5,1.8
				c0,2.9,6.8,1.2,6.8,5.7c0,2-1.8,3.4-4.4,3.4c-1.5,0-3-0.3-4.4-0.9l0.5-1.4c1.2,0.5,2.5,0.8,3.8,0.9c1.6,0,2.6-0.8,2.6-1.9
				c0-3-6.8-1.3-6.8-5.7C174.1,74.1,175.9,72.7,178.4,72.7"/>
		</g>
	</g>
</g>
</svg>
